<mxfile modified="2024-06-25T12:54:55.581Z" host="app.diagrams.net" agent="Mozilla/5.0 (Windows NT 10.0; Win64; x64) AppleWebKit/537.36 (KHTML, like Gecko) Chrome/126.0.0.0 Safari/537.36" etag="1_mY7I2n8yWLkzi2tWec" version="24.3.0" type="github">
  <diagram id="Ht1M8jgEwFfnCIfOTk4-" name="Page-1">
    <mxGraphModel dx="2897" dy="1742" grid="1" gridSize="10" guides="1" tooltips="1" connect="1" arrows="1" fold="1" page="1" pageScale="1" pageWidth="1169" pageHeight="827" background="#030303" math="0" shadow="0">
      <root>
        <mxCell id="0" />
        <mxCell id="1" parent="0" />
        <mxCell id="5XdPUicbo1l-6WFa_Wm8-49" value="Availability zone C" style="sketch=0;outlineConnect=0;gradientColor=none;html=1;whiteSpace=wrap;fontSize=12;fontStyle=0;shape=mxgraph.aws4.group;grIcon=mxgraph.aws4.group_availability_zone;strokeColor=#545B64;fillColor=none;verticalAlign=top;align=left;spacingLeft=30;fontColor=#545B64;dashed=1;" vertex="1" parent="1">
          <mxGeometry x="1160" y="80" width="240" height="240" as="geometry" />
        </mxCell>
        <mxCell id="5XdPUicbo1l-6WFa_Wm8-79" value="" style="rounded=0;whiteSpace=wrap;html=1;fillColor=none;fontColor=#FFFFFF;strokeColor=#FFFFFF;" vertex="1" parent="1">
          <mxGeometry x="780" y="-365" width="230" height="200" as="geometry" />
        </mxCell>
        <mxCell id="5XdPUicbo1l-6WFa_Wm8-50" value="Private subnet" style="points=[[0,0],[0.25,0],[0.5,0],[0.75,0],[1,0],[1,0.25],[1,0.5],[1,0.75],[1,1],[0.75,1],[0.5,1],[0.25,1],[0,1],[0,0.75],[0,0.5],[0,0.25]];outlineConnect=0;gradientColor=none;html=1;whiteSpace=wrap;fontSize=12;fontStyle=0;container=1;pointerEvents=0;collapsible=0;recursiveResize=0;shape=mxgraph.aws4.group;grIcon=mxgraph.aws4.group_security_group;grStroke=0;strokeColor=#00A4A6;fillColor=none;verticalAlign=top;align=left;spacingLeft=30;fontColor=#147EBA;dashed=0;" vertex="1" parent="1">
          <mxGeometry x="1200" y="120.25" width="160" height="159.5" as="geometry" />
        </mxCell>
        <mxCell id="5XdPUicbo1l-6WFa_Wm8-18" value="VPC" style="points=[[0,0],[0.25,0],[0.5,0],[0.75,0],[1,0],[1,0.25],[1,0.5],[1,0.75],[1,1],[0.75,1],[0.5,1],[0.25,1],[0,1],[0,0.75],[0,0.5],[0,0.25]];outlineConnect=0;gradientColor=none;html=1;whiteSpace=wrap;fontSize=12;fontStyle=0;container=1;pointerEvents=0;collapsible=0;recursiveResize=0;shape=mxgraph.aws4.group;grIcon=mxgraph.aws4.group_vpc2;strokeColor=#8C4FFF;fillColor=none;verticalAlign=top;align=left;spacingLeft=30;fontColor=#AAB7B8;dashed=0;" vertex="1" parent="1">
          <mxGeometry x="560" y="39.5" width="920" height="720.5" as="geometry" />
        </mxCell>
        <mxCell id="5XdPUicbo1l-6WFa_Wm8-21" value="Availability zone B" style="sketch=0;outlineConnect=0;gradientColor=none;html=1;whiteSpace=wrap;fontSize=12;fontStyle=0;shape=mxgraph.aws4.group;grIcon=mxgraph.aws4.group_availability_zone;strokeColor=#545B64;fillColor=none;verticalAlign=top;align=left;spacingLeft=30;fontColor=#FFFFFF;dashed=1;" vertex="1" parent="5XdPUicbo1l-6WFa_Wm8-18">
          <mxGeometry x="120" y="441.5" width="440" height="238.5" as="geometry" />
        </mxCell>
        <mxCell id="5XdPUicbo1l-6WFa_Wm8-22" value="Availability zone A" style="sketch=0;outlineConnect=0;gradientColor=none;html=1;whiteSpace=wrap;fontSize=12;fontStyle=0;shape=mxgraph.aws4.group;grIcon=mxgraph.aws4.group_availability_zone;strokeColor=#545B64;fillColor=none;verticalAlign=top;align=left;spacingLeft=30;fontColor=#FFFFFF;dashed=1;" vertex="1" parent="5XdPUicbo1l-6WFa_Wm8-18">
          <mxGeometry x="120" y="40.5" width="440" height="239.5" as="geometry" />
        </mxCell>
        <mxCell id="5XdPUicbo1l-6WFa_Wm8-26" value="Private subnet" style="points=[[0,0],[0.25,0],[0.5,0],[0.75,0],[1,0],[1,0.25],[1,0.5],[1,0.75],[1,1],[0.75,1],[0.5,1],[0.25,1],[0,1],[0,0.75],[0,0.5],[0,0.25]];outlineConnect=0;gradientColor=none;html=1;whiteSpace=wrap;fontSize=12;fontStyle=0;container=1;pointerEvents=0;collapsible=0;recursiveResize=0;shape=mxgraph.aws4.group;grIcon=mxgraph.aws4.group_security_group;grStroke=0;strokeColor=#00A4A6;fillColor=none;verticalAlign=top;align=left;spacingLeft=30;fontColor=#147EBA;dashed=0;strokeWidth=2;" vertex="1" parent="5XdPUicbo1l-6WFa_Wm8-18">
          <mxGeometry x="360" y="80.5" width="160" height="159.5" as="geometry" />
        </mxCell>
        <mxCell id="5XdPUicbo1l-6WFa_Wm8-47" value="" style="endArrow=block;html=1;rounded=0;entryX=1;entryY=0.5;entryDx=0;entryDy=0;entryPerimeter=0;strokeWidth=8;endFill=0;endSize=3;strokeColor=#FFFFFF;" edge="1" parent="5XdPUicbo1l-6WFa_Wm8-26">
          <mxGeometry width="50" height="50" relative="1" as="geometry">
            <mxPoint x="80" y="230" as="sourcePoint" />
            <mxPoint x="80" y="148.18" as="targetPoint" />
          </mxGeometry>
        </mxCell>
        <mxCell id="5XdPUicbo1l-6WFa_Wm8-25" value="Private subnet" style="points=[[0,0],[0.25,0],[0.5,0],[0.75,0],[1,0],[1,0.25],[1,0.5],[1,0.75],[1,1],[0.75,1],[0.5,1],[0.25,1],[0,1],[0,0.75],[0,0.5],[0,0.25]];outlineConnect=0;gradientColor=none;html=1;whiteSpace=wrap;fontSize=12;fontStyle=0;container=1;pointerEvents=0;collapsible=0;recursiveResize=0;shape=mxgraph.aws4.group;grIcon=mxgraph.aws4.group_security_group;grStroke=0;strokeColor=#00A4A6;fillColor=none;verticalAlign=top;align=left;spacingLeft=30;fontColor=#147EBA;dashed=0;" vertex="1" parent="5XdPUicbo1l-6WFa_Wm8-18">
          <mxGeometry x="360" y="480.5" width="160" height="159.5" as="geometry" />
        </mxCell>
        <mxCell id="5XdPUicbo1l-6WFa_Wm8-27" value="" style="sketch=0;points=[[0,0,0],[0.25,0,0],[0.5,0,0],[0.75,0,0],[1,0,0],[0,1,0],[0.25,1,0],[0.5,1,0],[0.75,1,0],[1,1,0],[0,0.25,0],[0,0.5,0],[0,0.75,0],[1,0.25,0],[1,0.5,0],[1,0.75,0]];outlineConnect=0;fontColor=#232F3E;fillColor=#ED7100;strokeColor=#ffffff;dashed=0;verticalLabelPosition=bottom;verticalAlign=top;align=center;html=1;fontSize=12;fontStyle=0;aspect=fixed;shape=mxgraph.aws4.resourceIcon;resIcon=mxgraph.aws4.fargate;" vertex="1" parent="5XdPUicbo1l-6WFa_Wm8-25">
          <mxGeometry x="41" y="40.75" width="78" height="78" as="geometry" />
        </mxCell>
        <mxCell id="5XdPUicbo1l-6WFa_Wm8-19" value="" style="sketch=0;outlineConnect=0;fontColor=#232F3E;gradientColor=none;fillColor=#8C4FFF;strokeColor=none;dashed=0;verticalLabelPosition=bottom;verticalAlign=top;align=center;html=1;fontSize=12;fontStyle=0;aspect=fixed;pointerEvents=1;shape=mxgraph.aws4.internet_gateway;" vertex="1" parent="5XdPUicbo1l-6WFa_Wm8-18">
          <mxGeometry x="20" y="320" width="80" height="80" as="geometry" />
        </mxCell>
        <mxCell id="5XdPUicbo1l-6WFa_Wm8-20" value="Internet&amp;nbsp;&lt;div&gt;Gateway&lt;/div&gt;" style="text;html=1;align=center;verticalAlign=middle;resizable=0;points=[];autosize=1;strokeColor=none;fillColor=none;fontColor=#FFFFFF;" vertex="1" parent="5XdPUicbo1l-6WFa_Wm8-18">
          <mxGeometry x="24" y="401.5" width="70" height="40" as="geometry" />
        </mxCell>
        <mxCell id="5XdPUicbo1l-6WFa_Wm8-24" value="Public subnet" style="points=[[0,0],[0.25,0],[0.5,0],[0.75,0],[1,0],[1,0.25],[1,0.5],[1,0.75],[1,1],[0.75,1],[0.5,1],[0.25,1],[0,1],[0,0.75],[0,0.5],[0,0.25]];outlineConnect=0;gradientColor=none;html=1;whiteSpace=wrap;fontSize=12;fontStyle=0;container=1;pointerEvents=0;collapsible=0;recursiveResize=0;shape=mxgraph.aws4.group;grIcon=mxgraph.aws4.group_security_group;grStroke=0;strokeColor=#7AA116;fillColor=none;verticalAlign=top;align=left;spacingLeft=30;fontColor=#248814;dashed=0;labelBackgroundColor=none;strokeWidth=2;" vertex="1" parent="5XdPUicbo1l-6WFa_Wm8-18">
          <mxGeometry x="160" y="80.5" width="160" height="159.5" as="geometry" />
        </mxCell>
        <mxCell id="5XdPUicbo1l-6WFa_Wm8-33" value="NAT Gateway" style="text;html=1;align=center;verticalAlign=middle;resizable=0;points=[];autosize=1;strokeColor=none;fillColor=none;fontColor=#FFFFFF;" vertex="1" parent="5XdPUicbo1l-6WFa_Wm8-24">
          <mxGeometry x="34" y="118.75" width="100" height="30" as="geometry" />
        </mxCell>
        <mxCell id="5XdPUicbo1l-6WFa_Wm8-23" value="Public subnet" style="points=[[0,0],[0.25,0],[0.5,0],[0.75,0],[1,0],[1,0.25],[1,0.5],[1,0.75],[1,1],[0.75,1],[0.5,1],[0.25,1],[0,1],[0,0.75],[0,0.5],[0,0.25]];outlineConnect=0;gradientColor=none;html=1;whiteSpace=wrap;fontSize=12;fontStyle=0;container=1;pointerEvents=0;collapsible=0;recursiveResize=0;shape=mxgraph.aws4.group;grIcon=mxgraph.aws4.group_security_group;grStroke=0;strokeColor=#7AA116;fillColor=none;verticalAlign=top;align=left;spacingLeft=30;fontColor=#248814;dashed=0;" vertex="1" parent="5XdPUicbo1l-6WFa_Wm8-18">
          <mxGeometry x="160" y="480.5" width="160" height="159.5" as="geometry" />
        </mxCell>
        <mxCell id="5XdPUicbo1l-6WFa_Wm8-31" value="" style="outlineConnect=0;dashed=0;verticalLabelPosition=bottom;verticalAlign=top;align=center;html=1;shape=mxgraph.aws3.vpc_nat_gateway;fillColor=#F58534;gradientColor=none;" vertex="1" parent="5XdPUicbo1l-6WFa_Wm8-23">
          <mxGeometry x="45.5" y="40.75" width="69" height="72" as="geometry" />
        </mxCell>
        <mxCell id="5XdPUicbo1l-6WFa_Wm8-39" value="" style="edgeStyle=elbowEdgeStyle;elbow=horizontal;endArrow=block;html=1;curved=0;rounded=0;endSize=4;startSize=8;entryX=0;entryY=0.5;entryDx=0;entryDy=0;entryPerimeter=0;strokeWidth=7;endFill=0;strokeColor=#FFFFFF;" edge="1" parent="5XdPUicbo1l-6WFa_Wm8-23">
          <mxGeometry width="50" height="50" relative="1" as="geometry">
            <mxPoint x="-100" y="-30" as="sourcePoint" />
            <mxPoint x="45.5" y="80" as="targetPoint" />
            <Array as="points">
              <mxPoint x="-100.5" y="94" />
            </Array>
          </mxGeometry>
        </mxCell>
        <mxCell id="5XdPUicbo1l-6WFa_Wm8-45" value="" style="endArrow=block;html=1;rounded=0;strokeWidth=8;endFill=0;endSize=3;exitX=0.97;exitY=1.012;exitDx=0;exitDy=0;exitPerimeter=0;strokeColor=#FFFFFF;" edge="1" parent="5XdPUicbo1l-6WFa_Wm8-23" source="5XdPUicbo1l-6WFa_Wm8-44">
          <mxGeometry width="50" height="50" relative="1" as="geometry">
            <mxPoint x="240.5" y="76.41000000000008" as="sourcePoint" />
            <mxPoint x="120" y="76" as="targetPoint" />
          </mxGeometry>
        </mxCell>
        <mxCell id="5XdPUicbo1l-6WFa_Wm8-28" value="" style="sketch=0;points=[[0,0,0],[0.25,0,0],[0.5,0,0],[0.75,0,0],[1,0,0],[0,1,0],[0.25,1,0],[0.5,1,0],[0.75,1,0],[1,1,0],[0,0.25,0],[0,0.5,0],[0,0.75,0],[1,0.25,0],[1,0.5,0],[1,0.75,0]];outlineConnect=0;fontColor=#232F3E;fillColor=#ED7100;strokeColor=#ffffff;dashed=0;verticalLabelPosition=bottom;verticalAlign=top;align=center;html=1;fontSize=12;fontStyle=0;aspect=fixed;shape=mxgraph.aws4.resourceIcon;resIcon=mxgraph.aws4.fargate;" vertex="1" parent="5XdPUicbo1l-6WFa_Wm8-18">
          <mxGeometry x="401" y="121.25" width="78" height="78" as="geometry" />
        </mxCell>
        <mxCell id="5XdPUicbo1l-6WFa_Wm8-29" value="ECS Fargate" style="text;html=1;align=center;verticalAlign=middle;resizable=0;points=[];autosize=1;strokeColor=none;fillColor=none;fontColor=#FFFFFF;" vertex="1" parent="5XdPUicbo1l-6WFa_Wm8-18">
          <mxGeometry x="395" y="199.25" width="90" height="30" as="geometry" />
        </mxCell>
        <mxCell id="5XdPUicbo1l-6WFa_Wm8-30" value="ECS Fargate" style="text;html=1;align=center;verticalAlign=middle;resizable=0;points=[];autosize=1;strokeColor=none;fillColor=none;fontColor=#FFFFFF;" vertex="1" parent="5XdPUicbo1l-6WFa_Wm8-18">
          <mxGeometry x="395" y="600.5" width="90" height="30" as="geometry" />
        </mxCell>
        <mxCell id="5XdPUicbo1l-6WFa_Wm8-32" value="" style="outlineConnect=0;dashed=0;verticalLabelPosition=bottom;verticalAlign=top;align=center;html=1;shape=mxgraph.aws3.vpc_nat_gateway;fillColor=#F58534;gradientColor=none;" vertex="1" parent="5XdPUicbo1l-6WFa_Wm8-18">
          <mxGeometry x="205.5" y="124.25" width="69" height="72" as="geometry" />
        </mxCell>
        <mxCell id="5XdPUicbo1l-6WFa_Wm8-34" value="NAT Gateway" style="text;html=1;align=center;verticalAlign=middle;resizable=0;points=[];autosize=1;strokeColor=none;fillColor=none;fontColor=#FFFFFF;" vertex="1" parent="5XdPUicbo1l-6WFa_Wm8-18">
          <mxGeometry x="194" y="600.5" width="100" height="30" as="geometry" />
        </mxCell>
        <mxCell id="5XdPUicbo1l-6WFa_Wm8-38" value="" style="edgeStyle=elbowEdgeStyle;elbow=horizontal;endArrow=block;html=1;curved=0;rounded=0;endSize=4;startSize=8;entryX=0;entryY=0.5;entryDx=0;entryDy=0;entryPerimeter=0;strokeWidth=7;endFill=0;strokeColor=#FFFFFF;" edge="1" parent="5XdPUicbo1l-6WFa_Wm8-18" target="5XdPUicbo1l-6WFa_Wm8-32">
          <mxGeometry width="50" height="50" relative="1" as="geometry">
            <mxPoint x="60" y="310.5" as="sourcePoint" />
            <mxPoint x="110" y="160.5" as="targetPoint" />
            <Array as="points">
              <mxPoint x="60" y="171" />
            </Array>
          </mxGeometry>
        </mxCell>
        <mxCell id="5XdPUicbo1l-6WFa_Wm8-41" value="" style="outlineConnect=0;dashed=0;verticalLabelPosition=bottom;verticalAlign=top;align=center;html=1;shape=mxgraph.aws3.application_load_balancer;fillColor=#F58534;gradientColor=none;" vertex="1" parent="5XdPUicbo1l-6WFa_Wm8-18">
          <mxGeometry x="400" y="320" width="80" height="80" as="geometry" />
        </mxCell>
        <mxCell id="5XdPUicbo1l-6WFa_Wm8-42" value="" style="endArrow=block;html=1;rounded=0;strokeWidth=8;endFill=0;endSize=3;strokeColor=#FFFFFF;" edge="1" parent="5XdPUicbo1l-6WFa_Wm8-18">
          <mxGeometry width="50" height="50" relative="1" as="geometry">
            <mxPoint x="390" y="160.5" as="sourcePoint" />
            <mxPoint x="280" y="160.5" as="targetPoint" />
          </mxGeometry>
        </mxCell>
        <mxCell id="5XdPUicbo1l-6WFa_Wm8-43" value="Access to&amp;nbsp;&lt;div&gt;Internet&lt;/div&gt;" style="text;html=1;align=center;verticalAlign=middle;resizable=0;points=[];autosize=1;strokeColor=none;fillColor=none;fontColor=#FFFFFF;" vertex="1" parent="5XdPUicbo1l-6WFa_Wm8-18">
          <mxGeometry x="315" y="118.25" width="80" height="40" as="geometry" />
        </mxCell>
        <mxCell id="5XdPUicbo1l-6WFa_Wm8-44" value="Access to&amp;nbsp;&lt;div&gt;Internet&lt;/div&gt;" style="text;html=1;align=center;verticalAlign=middle;resizable=0;points=[];autosize=1;strokeColor=none;fillColor=none;fontColor=#FFFFFF;" vertex="1" parent="5XdPUicbo1l-6WFa_Wm8-18">
          <mxGeometry x="317" y="516.5" width="80" height="40" as="geometry" />
        </mxCell>
        <mxCell id="5XdPUicbo1l-6WFa_Wm8-46" value="" style="endArrow=block;html=1;rounded=0;strokeWidth=8;endFill=0;endSize=3;strokeColor=#FFFFFF;" edge="1" parent="5XdPUicbo1l-6WFa_Wm8-18" target="5XdPUicbo1l-6WFa_Wm8-41">
          <mxGeometry width="50" height="50" relative="1" as="geometry">
            <mxPoint x="110" y="360.5" as="sourcePoint" />
            <mxPoint x="110" y="359.65999999999997" as="targetPoint" />
          </mxGeometry>
        </mxCell>
        <mxCell id="5XdPUicbo1l-6WFa_Wm8-48" value="" style="endArrow=block;html=1;rounded=0;strokeWidth=8;endFill=0;endSize=3;strokeColor=#FFFFFF;" edge="1" parent="5XdPUicbo1l-6WFa_Wm8-18">
          <mxGeometry width="50" height="50" relative="1" as="geometry">
            <mxPoint x="440" y="430.5" as="sourcePoint" />
            <mxPoint x="440" y="479.5" as="targetPoint" />
          </mxGeometry>
        </mxCell>
        <mxCell id="5XdPUicbo1l-6WFa_Wm8-57" value="" style="edgeStyle=elbowEdgeStyle;elbow=horizontal;endArrow=block;html=1;curved=0;rounded=0;endSize=4;startSize=8;strokeWidth=8;endFill=0;strokeColor=#FFFFFF;" edge="1" parent="5XdPUicbo1l-6WFa_Wm8-18">
          <mxGeometry width="50" height="50" relative="1" as="geometry">
            <mxPoint x="490" y="540.5" as="sourcePoint" />
            <mxPoint x="670" y="160.5" as="targetPoint" />
            <Array as="points">
              <mxPoint x="510" y="361" />
            </Array>
          </mxGeometry>
        </mxCell>
        <mxCell id="5XdPUicbo1l-6WFa_Wm8-55" value="" style="endArrow=block;html=1;rounded=0;strokeWidth=8;endFill=0;endSize=3;strokeColor=#FFFFFF;" edge="1" parent="5XdPUicbo1l-6WFa_Wm8-18">
          <mxGeometry width="50" height="50" relative="1" as="geometry">
            <mxPoint x="490" y="133" as="sourcePoint" />
            <mxPoint x="670" y="133" as="targetPoint" />
          </mxGeometry>
        </mxCell>
        <mxCell id="5XdPUicbo1l-6WFa_Wm8-58" value="" style="sketch=0;points=[[0,0,0],[0.25,0,0],[0.5,0,0],[0.75,0,0],[1,0,0],[0,1,0],[0.25,1,0],[0.5,1,0],[0.75,1,0],[1,1,0],[0,0.25,0],[0,0.5,0],[0,0.75,0],[1,0.25,0],[1,0.5,0],[1,0.75,0]];points=[[0,0,0],[0.25,0,0],[0.5,0,0],[0.75,0,0],[1,0,0],[0,1,0],[0.25,1,0],[0.5,1,0],[0.75,1,0],[1,1,0],[0,0.25,0],[0,0.5,0],[0,0.75,0],[1,0.25,0],[1,0.5,0],[1,0.75,0]];outlineConnect=0;fontColor=#232F3E;fillColor=#E7157B;strokeColor=#ffffff;dashed=0;verticalLabelPosition=bottom;verticalAlign=top;align=center;html=1;fontSize=12;fontStyle=0;aspect=fixed;shape=mxgraph.aws4.resourceIcon;resIcon=mxgraph.aws4.cloudwatch_2;" vertex="1" parent="5XdPUicbo1l-6WFa_Wm8-18">
          <mxGeometry x="680" y="320" width="80" height="80" as="geometry" />
        </mxCell>
        <mxCell id="5XdPUicbo1l-6WFa_Wm8-59" value="" style="endArrow=blockThin;html=1;rounded=0;dashed=1;strokeWidth=4;endFill=1;strokeColor=#FFFFFF;" edge="1" parent="5XdPUicbo1l-6WFa_Wm8-18">
          <mxGeometry width="50" height="50" relative="1" as="geometry">
            <mxPoint x="490" y="340.41" as="sourcePoint" />
            <mxPoint x="680.0000000000005" y="339.99695652173915" as="targetPoint" />
          </mxGeometry>
        </mxCell>
        <mxCell id="5XdPUicbo1l-6WFa_Wm8-60" value="Latency,&lt;div&gt;Error Count,&lt;/div&gt;&lt;div&gt;Connection Count&lt;/div&gt;" style="text;html=1;align=center;verticalAlign=middle;resizable=0;points=[];autosize=1;strokeColor=none;fillColor=none;fontColor=#FFFFFF;" vertex="1" parent="5XdPUicbo1l-6WFa_Wm8-18">
          <mxGeometry x="550" y="280" width="120" height="60" as="geometry" />
        </mxCell>
        <mxCell id="5XdPUicbo1l-6WFa_Wm8-61" value="ALB" style="text;html=1;align=center;verticalAlign=middle;resizable=0;points=[];autosize=1;strokeColor=none;fillColor=none;fontColor=#FFFFFF;" vertex="1" parent="5XdPUicbo1l-6WFa_Wm8-18">
          <mxGeometry x="413" y="398" width="50" height="30" as="geometry" />
        </mxCell>
        <mxCell id="5XdPUicbo1l-6WFa_Wm8-63" value="" style="endArrow=classic;html=1;rounded=0;dashed=1;strokeWidth=4;entryX=0.5;entryY=0;entryDx=0;entryDy=0;entryPerimeter=0;strokeColor=#FFFFFF;" edge="1" parent="5XdPUicbo1l-6WFa_Wm8-18">
          <mxGeometry width="50" height="50" relative="1" as="geometry">
            <mxPoint x="694" y="229.75" as="sourcePoint" />
            <mxPoint x="694.0000000000005" y="320" as="targetPoint" />
          </mxGeometry>
        </mxCell>
        <mxCell id="5XdPUicbo1l-6WFa_Wm8-64" value="Amazon Managed&lt;div&gt;&amp;nbsp;Service for Grafana&lt;/div&gt;" style="text;html=1;align=center;verticalAlign=middle;resizable=0;points=[];autosize=1;strokeColor=none;fillColor=none;fontColor=#FAFAFA;" vertex="1" parent="5XdPUicbo1l-6WFa_Wm8-18">
          <mxGeometry x="655" y="580.25" width="130" height="40" as="geometry" />
        </mxCell>
        <mxCell id="5XdPUicbo1l-6WFa_Wm8-67" value="" style="edgeStyle=elbowEdgeStyle;elbow=horizontal;endArrow=blockThin;html=1;curved=0;rounded=0;endSize=4;startSize=8;dashed=1;endFill=1;strokeWidth=4;strokeColor=#FFFFFF;" edge="1" parent="5XdPUicbo1l-6WFa_Wm8-18">
          <mxGeometry width="50" height="50" relative="1" as="geometry">
            <mxPoint x="490" y="580.5" as="sourcePoint" />
            <mxPoint x="680" y="380.5" as="targetPoint" />
            <Array as="points">
              <mxPoint x="530" y="561" />
            </Array>
          </mxGeometry>
        </mxCell>
        <mxCell id="5XdPUicbo1l-6WFa_Wm8-68" value="" style="edgeStyle=elbowEdgeStyle;elbow=horizontal;endArrow=none;html=1;curved=0;rounded=0;endSize=4;startSize=8;dashed=1;endFill=0;strokeWidth=4;strokeColor=#FFFFFF;" edge="1" parent="5XdPUicbo1l-6WFa_Wm8-18">
          <mxGeometry width="50" height="50" relative="1" as="geometry">
            <mxPoint x="490" y="180.5" as="sourcePoint" />
            <mxPoint x="530" y="380.5" as="targetPoint" />
            <Array as="points">
              <mxPoint x="530" y="281" />
            </Array>
          </mxGeometry>
        </mxCell>
        <mxCell id="5XdPUicbo1l-6WFa_Wm8-69" value="Amazon&amp;nbsp;&lt;div&gt;Cloud Watch&lt;/div&gt;" style="text;html=1;align=center;verticalAlign=middle;resizable=0;points=[];autosize=1;strokeColor=none;fillColor=none;fontColor=#FFFFFF;" vertex="1" parent="5XdPUicbo1l-6WFa_Wm8-18">
          <mxGeometry x="675" y="400" width="90" height="40" as="geometry" />
        </mxCell>
        <mxCell id="5XdPUicbo1l-6WFa_Wm8-70" value="CPU Usage,&lt;div&gt;Memory Usage&lt;/div&gt;" style="text;html=1;align=center;verticalAlign=middle;resizable=0;points=[];autosize=1;strokeColor=none;fillColor=none;fontColor=#FFFFFF;" vertex="1" parent="5XdPUicbo1l-6WFa_Wm8-18">
          <mxGeometry x="560" y="340.25" width="100" height="40" as="geometry" />
        </mxCell>
        <mxCell id="5XdPUicbo1l-6WFa_Wm8-72" value="" style="sketch=0;points=[[0,0,0],[0.25,0,0],[0.5,0,0],[0.75,0,0],[1,0,0],[0,1,0],[0.25,1,0],[0.5,1,0],[0.75,1,0],[1,1,0],[0,0.25,0],[0,0.5,0],[0,0.75,0],[1,0.25,0],[1,0.5,0],[1,0.75,0]];points=[[0,0,0],[0.25,0,0],[0.5,0,0],[0.75,0,0],[1,0,0],[0,1,0],[0.25,1,0],[0.5,1,0],[0.75,1,0],[1,1,0],[0,0.25,0],[0,0.5,0],[0,0.75,0],[1,0.25,0],[1,0.5,0],[1,0.75,0]];outlineConnect=0;fontColor=#232F3E;fillColor=#E7157B;strokeColor=#ffffff;dashed=0;verticalLabelPosition=bottom;verticalAlign=top;align=center;html=1;fontSize=12;fontStyle=0;aspect=fixed;shape=mxgraph.aws4.resourceIcon;resIcon=mxgraph.aws4.managed_service_for_grafana;" vertex="1" parent="5XdPUicbo1l-6WFa_Wm8-18">
          <mxGeometry x="681" y="490.5" width="78" height="78" as="geometry" />
        </mxCell>
        <mxCell id="5XdPUicbo1l-6WFa_Wm8-73" value="" style="endArrow=classic;html=1;rounded=0;dashed=1;strokeWidth=4;strokeColor=#FFFFFF;" edge="1" parent="5XdPUicbo1l-6WFa_Wm8-18">
          <mxGeometry width="50" height="50" relative="1" as="geometry">
            <mxPoint x="720" y="440.5" as="sourcePoint" />
            <mxPoint x="720" y="480.5" as="targetPoint" />
          </mxGeometry>
        </mxCell>
        <mxCell id="5XdPUicbo1l-6WFa_Wm8-52" value="" style="sketch=0;points=[[0,0,0],[0.25,0,0],[0.5,0,0],[0.75,0,0],[1,0,0],[0,1,0],[0.25,1,0],[0.5,1,0],[0.75,1,0],[1,1,0],[0,0.25,0],[0,0.5,0],[0,0.75,0],[1,0.25,0],[1,0.5,0],[1,0.75,0]];outlineConnect=0;fontColor=#232F3E;fillColor=#C925D1;strokeColor=#ffffff;dashed=0;verticalLabelPosition=bottom;verticalAlign=top;align=center;html=1;fontSize=12;fontStyle=0;aspect=fixed;shape=mxgraph.aws4.resourceIcon;resIcon=mxgraph.aws4.rds;" vertex="1" parent="1">
          <mxGeometry x="1241" y="161" width="78" height="78" as="geometry" />
        </mxCell>
        <mxCell id="5XdPUicbo1l-6WFa_Wm8-54" value="Amazon RDS" style="text;html=1;align=center;verticalAlign=middle;resizable=0;points=[];autosize=1;strokeColor=none;fillColor=none;" vertex="1" parent="1">
          <mxGeometry x="1230" y="239" width="100" height="30" as="geometry" />
        </mxCell>
        <mxCell id="5XdPUicbo1l-6WFa_Wm8-1" value="" style="html=1;verticalLabelPosition=bottom;align=center;labelBackgroundColor=#ffffff;verticalAlign=top;strokeWidth=2;strokeColor=#0080F0;shadow=0;dashed=0;shape=mxgraph.ios7.icons.user;" vertex="1" parent="1">
          <mxGeometry x="-1" y="183.5" width="40" height="40" as="geometry" />
        </mxCell>
        <mxCell id="5XdPUicbo1l-6WFa_Wm8-2" value="" style="sketch=0;points=[[0,0,0],[0.25,0,0],[0.5,0,0],[0.75,0,0],[1,0,0],[0,1,0],[0.25,1,0],[0.5,1,0],[0.75,1,0],[1,1,0],[0,0.25,0],[0,0.5,0],[0,0.75,0],[1,0.25,0],[1,0.5,0],[1,0.75,0]];outlineConnect=0;fontColor=#232F3E;fillColor=#8C4FFF;strokeColor=#ffffff;dashed=0;verticalLabelPosition=bottom;verticalAlign=top;align=center;html=1;fontSize=12;fontStyle=0;aspect=fixed;shape=mxgraph.aws4.resourceIcon;resIcon=mxgraph.aws4.route_53;" vertex="1" parent="1">
          <mxGeometry x="160" y="164.5" width="78" height="78" as="geometry" />
        </mxCell>
        <mxCell id="5XdPUicbo1l-6WFa_Wm8-3" value="" style="shape=flexArrow;endArrow=classic;html=1;rounded=0;strokeColor=#FFFFFF;" edge="1" parent="1">
          <mxGeometry width="50" height="50" relative="1" as="geometry">
            <mxPoint x="60" y="203.5" as="sourcePoint" />
            <mxPoint x="140" y="203.07" as="targetPoint" />
          </mxGeometry>
        </mxCell>
        <mxCell id="5XdPUicbo1l-6WFa_Wm8-4" value="Beequant.ai" style="text;html=1;align=center;verticalAlign=middle;resizable=0;points=[];autosize=1;strokeColor=none;fillColor=none;fontColor=#FFFFFF;" vertex="1" parent="1">
          <mxGeometry x="50" y="164.5" width="90" height="30" as="geometry" />
        </mxCell>
        <mxCell id="5XdPUicbo1l-6WFa_Wm8-6" value="" style="sketch=0;points=[[0,0,0],[0.25,0,0],[0.5,0,0],[0.75,0,0],[1,0,0],[0,1,0],[0.25,1,0],[0.5,1,0],[0.75,1,0],[1,1,0],[0,0.25,0],[0,0.5,0],[0,0.75,0],[1,0.25,0],[1,0.5,0],[1,0.75,0]];outlineConnect=0;fontColor=#232F3E;fillColor=#8C4FFF;strokeColor=#ffffff;dashed=0;verticalLabelPosition=bottom;verticalAlign=top;align=center;html=1;fontSize=12;fontStyle=0;aspect=fixed;shape=mxgraph.aws4.resourceIcon;resIcon=mxgraph.aws4.cloudfront;" vertex="1" parent="1">
          <mxGeometry x="160" y="363.5" width="78" height="78" as="geometry" />
        </mxCell>
        <mxCell id="5XdPUicbo1l-6WFa_Wm8-7" value="" style="shape=flexArrow;endArrow=classic;html=1;rounded=0;strokeColor=#FFFFFF;" edge="1" parent="1">
          <mxGeometry width="50" height="50" relative="1" as="geometry">
            <mxPoint x="200" y="264.5" as="sourcePoint" />
            <mxPoint x="200" y="344.5" as="targetPoint" />
          </mxGeometry>
        </mxCell>
        <mxCell id="5XdPUicbo1l-6WFa_Wm8-8" value="Amazon&amp;nbsp;&lt;div&gt;Route 53&lt;/div&gt;" style="text;html=1;align=center;verticalAlign=middle;resizable=0;points=[];autosize=1;strokeColor=none;fillColor=none;fontColor=#FFFFFF;" vertex="1" parent="1">
          <mxGeometry x="164" y="123.5" width="70" height="40" as="geometry" />
        </mxCell>
        <mxCell id="5XdPUicbo1l-6WFa_Wm8-10" value="" style="sketch=0;points=[[0,0,0],[0.25,0,0],[0.5,0,0],[0.75,0,0],[1,0,0],[0,1,0],[0.25,1,0],[0.5,1,0],[0.75,1,0],[1,1,0],[0,0.25,0],[0,0.5,0],[0,0.75,0],[1,0.25,0],[1,0.5,0],[1,0.75,0]];outlineConnect=0;fontColor=#232F3E;fillColor=#7AA116;strokeColor=#ffffff;dashed=0;verticalLabelPosition=bottom;verticalAlign=top;align=center;html=1;fontSize=12;fontStyle=0;aspect=fixed;shape=mxgraph.aws4.resourceIcon;resIcon=mxgraph.aws4.s3;" vertex="1" parent="1">
          <mxGeometry x="360" y="363.5" width="78" height="78" as="geometry" />
        </mxCell>
        <mxCell id="5XdPUicbo1l-6WFa_Wm8-11" value="" style="shape=flexArrow;endArrow=classic;html=1;rounded=0;strokeColor=#FFFFFF;" edge="1" parent="1">
          <mxGeometry width="50" height="50" relative="1" as="geometry">
            <mxPoint x="260" y="402.5" as="sourcePoint" />
            <mxPoint x="340" y="402.06999999999994" as="targetPoint" />
          </mxGeometry>
        </mxCell>
        <mxCell id="5XdPUicbo1l-6WFa_Wm8-12" value="Amazon&amp;nbsp;&lt;div&gt;Cloud Front&lt;/div&gt;" style="text;html=1;align=center;verticalAlign=middle;resizable=0;points=[];autosize=1;strokeColor=none;fillColor=none;fontColor=#FFFFFF;" vertex="1" parent="1">
          <mxGeometry x="154" y="443.5" width="90" height="40" as="geometry" />
        </mxCell>
        <mxCell id="5XdPUicbo1l-6WFa_Wm8-13" value="AWS S3" style="text;html=1;align=center;verticalAlign=middle;resizable=0;points=[];autosize=1;strokeColor=none;fillColor=none;fontColor=#FFFFFF;" vertex="1" parent="1">
          <mxGeometry x="364" y="446.5" width="70" height="30" as="geometry" />
        </mxCell>
        <mxCell id="5XdPUicbo1l-6WFa_Wm8-16" value="" style="shape=flexArrow;endArrow=classic;html=1;rounded=0;strokeColor=#FFFFFF;" edge="1" parent="1">
          <mxGeometry width="50" height="50" relative="1" as="geometry">
            <mxPoint x="450" y="402.82" as="sourcePoint" />
            <mxPoint x="540" y="402.18" as="targetPoint" />
          </mxGeometry>
        </mxCell>
        <mxCell id="5XdPUicbo1l-6WFa_Wm8-17" value="api.Beequant.ai" style="text;html=1;align=center;verticalAlign=middle;resizable=0;points=[];autosize=1;strokeColor=none;fillColor=none;fontColor=#FFFFFF;" vertex="1" parent="1">
          <mxGeometry x="440" y="361.5" width="110" height="30" as="geometry" />
        </mxCell>
        <mxCell id="5XdPUicbo1l-6WFa_Wm8-66" value="Database Connection,&lt;div&gt;DB Instance CPU usage,&lt;div&gt;DB memory usage&lt;/div&gt;&lt;/div&gt;" style="text;html=1;align=center;verticalAlign=middle;resizable=0;points=[];autosize=1;strokeColor=none;fillColor=none;fontColor=#FFFFFF;" vertex="1" parent="1">
          <mxGeometry x="1249" y="260.5" width="160" height="60" as="geometry" />
        </mxCell>
        <mxCell id="5XdPUicbo1l-6WFa_Wm8-75" value="" style="shape=image;verticalLabelPosition=bottom;labelBackgroundColor=default;verticalAlign=top;aspect=fixed;imageAspect=0;image=https://www.aviator.co/blog/wp-content/uploads/2023/01/terraform.png;" vertex="1" parent="1">
          <mxGeometry x="1340" y="-280" width="80" height="60.02" as="geometry" />
        </mxCell>
        <mxCell id="5XdPUicbo1l-6WFa_Wm8-76" value="" style="shape=image;verticalLabelPosition=bottom;labelBackgroundColor=default;verticalAlign=top;aspect=fixed;imageAspect=0;image=https://assets-global.website-files.com/6203daf47137054c031fa0e6/63306942721a28becf0ded7a_github-actions.svg;" vertex="1" parent="1">
          <mxGeometry x="1340" y="-413" width="80" height="80" as="geometry" />
        </mxCell>
        <mxCell id="5XdPUicbo1l-6WFa_Wm8-77" value="" style="shape=image;verticalLabelPosition=bottom;labelBackgroundColor=default;verticalAlign=top;aspect=fixed;imageAspect=0;image=https://assets-global.website-files.com/6203daf47137054c031fa0e6/63306942721a28becf0ded7a_github-actions.svg;" vertex="1" parent="1">
          <mxGeometry x="800" y="-360" width="80" height="80" as="geometry" />
        </mxCell>
        <mxCell id="5XdPUicbo1l-6WFa_Wm8-78" value="Repo CD Pipeline" style="text;html=1;align=center;verticalAlign=middle;resizable=0;points=[];autosize=1;strokeColor=none;fillColor=none;fontColor=#FFFFFF;" vertex="1" parent="1">
          <mxGeometry x="780" y="-280" width="120" height="30" as="geometry" />
        </mxCell>
      </root>
    </mxGraphModel>
  </diagram>
</mxfile>
